<svg xmlns="http://www.w3.org/2000/svg" width="200" height="200" viewBox="0 0 200 200"><g fill="#98C746"><path d="M35.704 91.321C49.156 104.636 100 159.333 100 159.333V126L35.487 65.978s-11.473 13.773.217 25.343zM10 116.898c5 62.106 64 63.874 64 63.874v-28.439L10 91.556v25.342zM61.937 65.743C75.282 79.167 100 106.833 100 106.833v-31.5L61.701 40.401s-11.38 13.657.236 25.342zM100.303 54.167l-.05-51.307-12.16 12.16s-13.213 11.955.17 25.338c13.383 13.384 12.04 13.809 12.04 13.809zM190 92.016l-90 92.828V152l64.223-60.445c7.715-7.222 19.107-6.635 25.777.461z"/><path d="M164.614 65.978L100 134.833V101l38.03-35.022c6.497-7.501 19.191-7.667 26.584 0zM138.561 40.236L100 81.833V49.167l11.885-8.762c6.208-6.721 18.669-8.235 26.676-.169z"/></g><g fill="#8DB63F"><path d="M10 91.556l90 90.337v-26.699L35.878 91.556c-8.412-8.37-19.639-6.857-25.878 0zM35.487 65.978L100 130.279V103.58L62.095 65.978c-8.232-8.074-20.494-6.89-26.608 0zM61.701 40.401L100 78.41V51.711L88.244 40.405c-7.292-7.294-19.129-7.424-26.543-.004zM164.499 91.321C151.174 104.763 100 155.194 100 155.194v-25.578l64.614-63.639c0 .001 11.455 13.672-.115 25.344z"/><path d="M138.306 65.743C124.992 79.197 100 103.581 100 103.581V78.003l38.561-37.767s11.794 13.331-.255 25.507zM100 51.711V2.672l12.33 12.16s13.154 11.955-.23 25.338C98.716 53.554 100 51.711 100 51.711zM190 117.359c-5 62.106-64 63.874-64 63.874v-25.578l64-63.639v25.343z"/></g><circle fill="#DAA8C8" cx="100.452" cy="131.928" r="26.675"/><circle fill="#DAA8C8" cx="123.186" cy="171.653" r="26.675"/><circle fill="#DAA8C8" cx="77.769" cy="171.653" r="26.675"/><path fill="#F3D5E6" d="M127.127 131.851h-53.35c0-14 11.943-26.675 26.675-26.675s26.675 12.675 26.675 26.675zM64.436 148.547l26.675 46.203c-12.758 7.366-29.073 2.995-36.439-9.764s-2.994-29.073 9.764-36.439zM136.519 148.547l-26.675 46.203c12.758 7.366 29.073 2.995 36.439-9.764s2.995-29.073-9.764-36.439z"/><circle fill="#F3D5E6" cx="100.452" cy="158.603" r="18.329"/></svg>